PathFileType	4	(X/Y/Z)	38_2_28_p1_0-319_filt_butterworth.trc
DataRate	CameraRate	NumFrames	NumMarkers	Units	OrigDataRate	OrigDataStartFrame	OrigNumFrames
52.0	52.0	6	27	m	52.0	279	319
Frame#	Time	RHip			RKnee			RAnkle			RBigToe			RSmallToe			RHeel			LHip			LKnee			LAnkle			LBigToe			LSmallToe			LHeel			Neck			Head			Nose			RShoulder			RElbow			RWrist			RThumb			RIndex			RPinky			LShoulder			LElbow			LWrist			LThumb			LIndex			LPinky			
		X1	Y1	Z1	X2	Y2	Z2	X3	Y3	Z3	X4	Y4	Z4	X5	Y5	Z5	X6	Y6	Z6	X7	Y7	Z7	X8	Y8	Z8	X9	Y9	Z9	X10	Y10	Z10	X11	Y11	Z11	X12	Y12	Z12	X13	Y13	Z13	X14	Y14	Z14	X15	Y15	Z15	X16	Y16	Z16	X17	Y17	Z17	X18	Y18	Z18	X19	Y19	Z19	X20	Y20	Z20	X21	Y21	Z21	X22	Y22	Z22	X23	Y23	Z23	X24	Y24	Z24	X25	Y25	Z25	X26	Y26	Z26	X27	Y27	Z27	
279	5.365384615384615	0.3843346928584919	0.626962917735222	0.9904954494343341	0.3793160145624829	0.2248796252584862	0.9988675292234703	0.3825377801688966	-0.217557673469395	1.0323206456333425	0.32870452558400576	-0.23712088118594557	0.8479238119018895	0.39962424646874406	-0.23572293230693792	0.8435884338573074	0.3626817984357817	-0.29579095915581965	1.132105029930786	0.18665194810433622	0.6343844092968944	1.0005817414937708	0.17554183625120307	0.2207017529631755	1.0320329844622673	0.15844205686643545	-0.18801230204098607	1.0440937216031474	0.1678901798681176	-0.21043152509309876	0.8516420548115192	0.11263149899610272	-0.23269817248616084	0.906009391976589	0.17798518670204452	-0.2670898077465296	1.1146528525250903	0.29537111763458435	1.2043880616261777	0.946500736106501	0.2853055921409373	1.4535048295860569	0.9028482486069831	0.27395336302771917	1.3153959643864523	0.8746180355487363	0.4553536158846735	1.10781694699901	0.9556034305582035	0.44949968057278783	0.8422915695249493	0.8958616569839015	0.2646032247883682	0.7910693069973979	0.7423593524770735	0.15235372658985302	0.7983557071425164	0.7059176677534967	0.15391753834473657	0.7742755255235643	0.6970589520441579	0.18494461566698417	0.736680841623229	0.7048950590971138	0.1508728704159517	1.1212536182661568	1.03346347414672	0.11964524083225705	0.9003233095668026	1.0182749868271492	4.918443474854724e-05	0.8315074197946531	0.8753886867812395	-0.042878795523639296	0.8612109800535401	0.7286500514969283	-0.07449393131925343	0.8321379333154872	0.7657625594752746	-0.056365109456742835	0.7891884886209528	0.7858852562738964	
280	5.384615384615385	0.3845603823568091	0.625246092345099	0.9907265023002833	0.37928482772579436	0.2251378609821121	0.9988046878140542	0.38246979417062954	-0.2175112428939035	1.0322669942549427	0.3286986744474194	-0.2371433659427311	0.8479305247426573	0.3994885706061526	-0.23497194587051626	0.8433674751279291	0.3631304887339059	-0.2963293770372798	1.1329492502886855	0.18623926013957173	0.6328025092185499	1.003091118393511	0.17563289569715068	0.22084086859514143	1.0320134521735655	0.1584154968421312	-0.18748736043993874	1.0439609903518536	0.16770323535107978	-0.20826912279244722	0.848591671801545	0.11274349097233174	-0.23228283803312774	0.9059438605200323	0.17792974978121695	-0.266882415938284	1.1155735248123888	0.29530657617531814	1.205152603231267	0.9462225857230067	0.2844162573305031	1.4534914198502562	0.900634414554828	0.27303847304607554	1.3165425386253844	0.8726549137605573	0.455899522863739	1.1070959317252844	0.958798791935898	0.4534631487547048	0.8395980239186107	0.9094630498432366	0.267152625393381	0.7842992466966823	0.7485889835385342	0.15799845975875837	0.7814482832361328	0.7067206689780791	0.1613165896613018	0.7604300168538203	0.7012244539925767	0.19143035599434105	0.7290954736158107	0.7094686219609367	0.14969251184557603	1.1209490642277269	1.0308748025490457	0.11690182618657899	0.897751756941143	1.0280104008676172	0.0033342158053758335	0.8195353733063694	0.8728018695449018	-0.0410851303672326	0.8457136821414217	0.7258855640195673	-0.07192088571537181	0.814064622914715	0.7659773404283339	-0.0569945001401137	0.7717251892059371	0.7905687677309954	
281	5.403846153846154	0.3847071556638509	0.6238810788163948	0.9909982121299402	0.3793247378875132	0.22523711370365992	0.9989989493832954	0.382442977400467	-0.21734587452490037	1.0319918318257397	0.32869473890627554	-0.2371792523238826	0.8479508423117971	0.3992343536626717	-0.23372858327963192	0.8428536270294443	0.36342814326126277	-0.2968519423324713	1.1335533762816985	0.18589127531637548	0.6311819857718611	1.0065472087239697	0.175803541172336	0.22098055660072322	1.0318376505448132	0.1583461597363238	-0.1870121783356989	1.0437635870775652	0.16777595543000356	-0.2063040077108381	0.8459414883880627	0.11292534738528652	-0.2316788631994372	0.9059646401269112	0.17784115129629674	-0.2666255849218916	1.1163745079004384	0.29527577898308155	1.2059570249013263	0.9458612720422995	0.2835807330893153	1.4535294939346242	0.8985172576937952	0.27231664823571927	1.3172288678608868	0.8710781990072088	0.4562709432997163	1.1066353889019975	0.9607220128653944	0.45778559593796164	0.8378014424558372	0.9205273446738771	0.26916710177754777	0.7793923629127485	0.7524616519540019	0.16313417960459795	0.7675820523509926	0.7058569710024201	0.1670771929111036	0.7509383778635658	0.702299876040344	0.1961385407499395	0.7239199389272263	0.7142316509001048	0.14806236717136034	1.1206158218939057	1.0279178647561698	0.1137537386322568	0.8941658760457158	1.0377988897273829	0.006588563387423927	0.8099179654139219	0.8667673839675867	-0.039484168233880935	0.8308917948695279	0.7275297471453752	-0.07010690014858187	0.7977469681346907	0.7674483808060834	-0.0573022355377303	0.7562106174319938	0.7949659600075166	
282	5.423076923076923	0.3847283026975431	0.6229020298706115	0.9914458520160593	0.37944701751423393	0.22509036652380265	0.9994506364290533	0.3824335784405713	-0.21705612034909183	1.031492138402836	0.3286959259640809	-0.23721005772252118	0.8479787915647988	0.3990257813065755	-0.23241875236629536	0.8424064764848126	0.3635799926685589	-0.29736372475253336	1.133928026539967	0.18568818270914889	0.6294876446740016	1.0105880970350267	0.17608430989128038	0.22109790866913195	1.0315192915145206	0.1582570051938175	-0.18667595487900793	1.0435401098770432	0.1680020705084082	-0.20471239801674096	0.8439021401328333	0.11313681075031194	-0.23095364190392806	0.9060103703560765	0.1777865349622169	-0.2662573971681762	1.1167790711483392	0.2953042001043584	1.2066701204482935	0.9458292567677644	0.28291699595957936	1.4535467015936265	0.8967998392547283	0.27190996089545677	1.317430709706522	0.8701667959022473	0.4563887915314038	1.1065356306226668	0.9613263649836645	0.46201024091447057	0.8366998582724433	0.9289992215917611	0.2724218175484735	0.7755215494801856	0.7550599101221401	0.16847955847079993	0.756841011106263	0.705072018551862	0.17214049000002535	0.744916934829922	0.7015851197791885	0.20097465609071435	0.7179750334413536	0.7215692020382514	0.14592592499526524	1.1203643277086646	1.024854558300433	0.11087134215885844	0.8893689499586155	1.0478416684781484	0.010576027222561075	0.8026767176319651	0.8589710802653305	-0.038181915201520464	0.8151653806291534	0.7343783735894276	-0.06860706043511339	0.7818264600467603	0.7711933173437765	-0.056596765557732395	0.7418656183431994	0.8002394979155457	
283	5.4423076923076925	0.384629675364251	0.6222773169745307	0.9920673048765275	0.3796446964226675	0.22466942820438232	1.000136639300338	0.38233705346235325	-0.21675770239673497	1.0309765820864087	0.3287027831562586	-0.23722982516413008	0.8480145594030505	0.39913175537697654	-0.23159655655985836	0.8426379122527748	0.36358672743337317	-0.2978391799090111	1.1340718542511243	0.1856810642992513	0.6278272715100836	1.0149358844695133	0.17645737416478666	0.2211139871435688	1.0312589252399338	0.15818748821054013	-0.18653070622955098	1.0433689974664782	0.16814946546105347	-0.20353316695624524	0.8426563612327962	0.11333840917615629	-0.23018481061933282	0.9060472557361832	0.177809408467502	-0.2657883295364326	1.1167011182776538	0.29525657650451687	1.2072010029589562	0.946109841154853	0.2825377937717328	1.4535012163499959	0.8957884829048137	0.27184858391028904	1.3173273988296308	0.870007604317668	0.456271157378747	1.1066000776017222	0.9614284712868945	0.4657806731263945	0.8358744473334347	0.9360588272894863	0.2778188553060425	0.7716002821745921	0.7568841997479561	0.1745024140491866	0.7485603676773595	0.7052026926452517	0.17742315613123616	0.7397079495735956	0.7015985613219629	0.20748188874139994	0.7094487372643675	0.7299802110906806	0.14347869787581607	1.1202231112869443	1.0220877217930635	0.10853741438699431	0.8837099461504174	1.057254259667156	0.015235355228958936	0.7968470805578388	0.8520169516277493	-0.03700760992840131	0.7978699747855124	0.7453199687063045	-0.0672682329013841	0.7653457139643458	0.7772590650591024	-0.05481235680869455	0.7284713801684898	0.8062794572256131	
284	5.461538461538462	0.3844368198480143	0.6220535008019763	0.992776443562539	0.37989118698935315	0.22405852522932632	1.0010467484403578	0.38204852914992765	-0.21659254197441435	1.0306931127233727	0.328714400881408	-0.23725367645945017	0.8480655712254542	0.39967500441947756	-0.2315645315371539	0.8438703567758752	0.3634442302659147	-0.29821906697985584	1.1339975814114829	0.18588742767378147	0.6267026604962719	1.0193926838034715	0.17683030181093184	0.22093756320892444	1.0312560077904347	0.15817059705802433	-0.18658420171059553	1.0433023817549836	0.1681134364219377	-0.20270437971336175	0.8422739450711672	0.11351122766760607	-0.22944354082392732	0.9060863568807217	0.17791248264893325	-0.26523647975570186	1.1161857893440024	0.29492486458240535	1.2075127438877413	0.9462550799897482	0.2824661738183883	1.4534539714830592	0.895562525069217	0.27199093598772317	1.317218745289382	0.8703100186393318	0.45589648972616215	1.1066738279425772	0.9614653929082262	0.4690399379805572	0.835109102319487	0.942566714427544	0.2849913776000203	0.76672427676969	0.7581175675006202	0.18123397128445976	0.7416170622820408	0.7064919535355995	0.18350308127894888	0.7325023206789172	0.7041215515245128	0.2163004392493917	0.6987388508841407	0.7360674020395676	0.141160965255398	1.1201936665580494	1.0200961761440601	0.10693474276295924	0.8778103437321555	1.0647038237282365	0.01961218506210541	0.7910374053672404	0.847629482109989	-0.03568665638087392	0.7790848320306412	0.7584371466282134	-0.0661305743782927	0.7486593443301374	0.7842228753553959	-0.05222195582004878	0.7164962812626685	0.8120190899641176	
